<svg width="15" height="14" viewBox="0 0 15 14" fill="none" xmlns="http://www.w3.org/2000/svg">
<path d="M7.5 0C6.11553 0 4.76216 0.410543 3.61101 1.17971C2.45987 1.94888 1.56266 3.04213 1.03285 4.32122C0.503033 5.6003 0.36441 7.00776 0.634506 8.36563C0.904603 9.7235 1.57129 10.9708 2.55026 11.9497C3.52922 12.9287 4.7765 13.5954 6.13437 13.8655C7.49224 14.1356 8.8997 13.997 10.1788 13.4672C11.4579 12.9373 12.5511 12.0401 13.3203 10.889C14.0895 9.73785 14.5 8.38447 14.5 7C14.4994 5.14367 13.7617 3.36356 12.4491 2.05094C11.1364 0.738315 9.35633 0.000618466 7.5 0ZM7.5 12.6C6.01479 12.6 4.59041 12.01 3.5402 10.9598C2.49 9.90959 1.9 8.48521 1.9 7C1.89751 5.75618 2.31427 4.54782 3.083 3.57L10.93 11.417C9.95218 12.1857 8.74382 12.6025 7.5 12.6ZM11.917 10.43L4.07 2.583C5.04783 1.81427 6.25619 1.39751 7.5 1.4C8.98521 1.4 10.4096 1.99 11.4598 3.0402C12.51 4.0904 13.1 5.51479 13.1 7C13.1025 8.24381 12.6857 9.45218 11.917 10.43Z" fill="#004DB7"/>
</svg>
