<svg width="16" height="16" viewBox="0 0 16 16" fill="none" xmlns="http://www.w3.org/2000/svg">
<path d="M7.26364 2.47266H2.39192C2.02276 2.47266 1.66872 2.6193 1.40768 2.88034C1.14665 3.14138 1 3.49542 1 3.86458V13.608C1 13.9772 1.14665 14.3312 1.40768 14.5923C1.66872 14.8533 2.02276 14.9999 2.39192 14.9999H12.1354C12.5045 14.9999 12.8586 14.8533 13.1196 14.5923C13.3806 14.3312 13.5273 13.9772 13.5273 13.608V8.7363" stroke="#004DB7" stroke-width="1.5" stroke-linecap="round" stroke-linejoin="round"/>
<path d="M12.4834 1.42877C12.7606 1.1535 13.1356 0.999319 13.5262 1C13.9169 1.00069 14.2914 1.15618 14.5676 1.43242C14.8438 1.70866 14.9993 2.08312 15 2.47378C15.0007 2.86444 14.8465 3.23945 14.5712 3.51665L7.95962 10.1283L5.17578 10.8242L5.87174 8.04039L12.4834 1.42877Z" stroke="#004DB7" stroke-width="1.5" stroke-linecap="round" stroke-linejoin="round"/>
</svg>
