<svg width="20" height="15" viewBox="0 0 20 15" fill="none" xmlns="http://www.w3.org/2000/svg">
<path d="M1 7.54545C1 7.54545 4.27273 1 10 1C15.7273 1 19 7.54545 19 7.54545C19 7.54545 15.7273 14.0909 10 14.0909C4.27273 14.0909 1 7.54545 1 7.54545Z" stroke="#004DB7" stroke-width="1.5" stroke-linecap="round" stroke-linejoin="round"/>
<path d="M12.4545 7.54439C12.4545 8.02985 12.3105 8.50441 12.0408 8.90806C11.7711 9.31171 11.3878 9.62631 10.9393 9.81209C10.4908 9.99787 9.99723 10.0465 9.5211 9.95177C9.04496 9.85706 8.60761 9.62329 8.26433 9.28001C7.92106 8.93674 7.68728 8.49938 7.59257 8.02325C7.49787 7.54711 7.54647 7.05359 7.73225 6.60508C7.91803 6.15657 8.23264 5.77322 8.63628 5.50351C9.03993 5.2338 9.51449 5.08984 9.99996 5.08984C10.6509 5.08984 11.2753 5.34845 11.7356 5.80876C12.1959 6.26908 12.4545 6.8934 12.4545 7.54439Z" stroke="#004DB7" stroke-width="1.5" stroke-linecap="round" stroke-linejoin="round"/>
</svg>
