<svg width="17" height="15" viewBox="0 0 17 15" fill="none" xmlns="http://www.w3.org/2000/svg">
<path d="M11.3338 7.68642C11.3338 7.36619 11.2389 7.05315 11.061 6.78689C10.883 6.52063 10.6302 6.3131 10.3343 6.19055C10.0385 6.068 9.71291 6.03594 9.39883 6.09841C9.08475 6.16089 8.79626 6.31509 8.56982 6.54153C8.34338 6.76797 8.18917 7.05647 8.1267 7.37055C8.06423 7.68463 8.09629 8.01018 8.21884 8.30603C8.34138 8.60189 8.54891 8.85476 8.81517 9.03267C9.08144 9.21058 9.39448 9.30554 9.71471 9.30554C10.1437 9.30426 10.5548 9.13326 10.8582 8.8299C11.1615 8.52653 11.3325 8.11544 11.3338 7.68642ZM9.71471 0.400391C7.78233 0.400391 5.9291 1.16802 4.56271 2.53442C3.19631 3.90082 2.42868 5.75405 2.42868 7.68642H0L3.23824 10.9247L6.47647 7.68642H4.04779C4.04694 6.41476 4.47354 5.17972 5.25907 4.17969C6.04461 3.17966 7.14348 2.47269 8.37916 2.17234C9.61484 1.87199 10.9156 1.99571 12.0725 2.52361C13.2294 3.0515 14.1753 3.95295 14.7583 5.08313C15.3412 6.21331 15.5273 7.50663 15.2868 8.75533C15.0462 10.004 14.3929 11.1356 13.4318 11.9684C12.4708 12.8011 11.2577 13.2866 9.98743 13.3469C8.7172 13.4072 7.46356 13.0388 6.4279 12.3009L5.27832 13.4667C6.19689 14.1716 7.27021 14.6474 8.40935 14.8547C9.54849 15.062 10.7206 14.9949 11.8286 14.6588C12.9367 14.3228 13.9486 13.7275 14.7807 12.9223C15.6127 12.1172 16.2409 11.1253 16.6132 10.0289C16.9854 8.93252 17.091 7.76322 16.9212 6.61788C16.7514 5.47255 16.3111 4.38418 15.6368 3.44297C14.9624 2.50176 14.0735 1.73481 13.0436 1.20569C12.0137 0.676567 10.8726 0.400508 9.71471 0.400391Z" fill="#004DB7"/>
</svg>
