<svg width="16" height="17" viewBox="0 0 16 17" fill="none" xmlns="http://www.w3.org/2000/svg">
<path d="M10.7154 10.3998L8.81489 8.49983L10.7149 6.59983C10.8182 6.49081 10.8749 6.34578 10.8728 6.1956C10.8708 6.04543 10.8103 5.90198 10.7041 5.79578C10.5979 5.68958 10.4544 5.62903 10.3042 5.62701C10.1541 5.62498 10.009 5.68166 9.90002 5.78496L8.00002 7.68496L6.10002 5.78496C5.991 5.68166 5.84597 5.62498 5.6958 5.62701C5.54563 5.62903 5.40217 5.68958 5.29597 5.79578C5.18978 5.90198 5.12922 6.04543 5.1272 6.1956C5.12518 6.34578 5.18185 6.49081 5.28515 6.59983L7.18515 8.49983L5.28515 10.3998C5.22923 10.4519 5.18463 10.515 5.15414 10.5851C5.12365 10.6552 5.10791 10.7308 5.10791 10.8073C5.10791 10.8837 5.12365 10.9593 5.15414 11.0294C5.18463 11.0995 5.22923 11.1626 5.28515 11.2147C5.33839 11.2687 5.40183 11.3115 5.47177 11.3408C5.54171 11.37 5.61677 11.3851 5.69259 11.3851C5.7684 11.3851 5.84346 11.37 5.9134 11.3408C5.98335 11.3115 6.04678 11.2687 6.10002 11.2147L8.00002 9.3147L9.90002 11.2147C10.0084 11.3221 10.1549 11.3823 10.3075 11.3823C10.4601 11.3823 10.6065 11.3221 10.7149 11.2147C10.7689 11.1615 10.8118 11.0981 10.8411 11.0282C10.8704 10.9582 10.8855 10.8832 10.8855 10.8074C10.8856 10.7316 10.8706 10.6565 10.8414 10.5865C10.8122 10.5166 10.7693 10.4531 10.7154 10.3998Z" fill="#C40D42" stroke="#C40D42" stroke-width="0.5"/>
<path d="M8 2.00974C9.50085 2.01043 10.955 2.53145 12.1148 3.48405C13.2746 4.43665 14.0682 5.76189 14.3605 7.234C14.6528 8.70611 14.4256 10.234 13.7177 11.5574C13.0099 12.8809 11.865 13.9179 10.4783 14.4919C9.09152 15.0659 7.54866 15.1413 6.11252 14.7054C4.67639 14.2694 3.43583 13.349 2.60219 12.101C1.76855 10.853 1.39339 9.35452 1.54065 7.86091C1.6879 6.36731 2.34844 4.97095 3.40975 3.90974C4.01121 3.30523 4.72661 2.82604 5.51453 2.4999C6.30246 2.17376 7.14725 2.00716 8 2.00974ZM8 1C6.51664 1 5.06659 1.43987 3.83323 2.26398C2.59986 3.08809 1.63856 4.25943 1.07091 5.62987C0.50325 7.00032 0.354725 8.50832 0.644114 9.96317C0.933503 11.418 1.64781 12.7544 2.6967 13.8033C3.7456 14.8522 5.08197 15.5665 6.53682 15.8559C7.99168 16.1453 9.49968 15.9967 10.8701 15.4291C12.2406 14.8614 13.4119 13.9001 14.236 12.6668C15.0601 11.4334 15.5 9.98336 15.5 8.5C15.5001 7.51505 15.3062 6.53972 14.9294 5.62971C14.5525 4.71971 14.0001 3.89286 13.3036 3.1964C12.6071 2.49993 11.7803 1.94749 10.8703 1.57063C9.96028 1.19377 8.98495 0.999865 8 1Z" fill="#C40D42" stroke="#C40D42" stroke-width="0.5"/>
</svg>
