<svg width="16" height="16" viewBox="0 0 16 16" fill="none" xmlns="http://www.w3.org/2000/svg">
<path d="M15 8C15 9.38447 14.5895 10.7378 13.8203 11.889C13.0511 13.0401 11.9579 13.9373 10.6788 14.4672C9.3997 14.997 7.99224 15.1356 6.63437 14.8655C5.2765 14.5954 4.02922 13.9287 3.05026 12.9497C2.07129 11.9708 1.4046 10.7235 1.13451 9.36563C0.86441 8.00776 1.00303 6.6003 1.53285 5.32121C2.06266 4.04213 2.95987 2.94888 4.11101 2.17971C5.26215 1.41054 6.61553 1 8 1C8.91925 1 9.82951 1.18106 10.6788 1.53284C11.5281 1.88463 12.2997 2.40024 12.9497 3.05025C13.5998 3.70026 14.1154 4.47194 14.4672 5.32121C14.8189 6.17049 15 7.08075 15 8V8Z" stroke="#F47A20" stroke-width="1.5" stroke-linecap="round" stroke-linejoin="round"/>
<path d="M8 10.8V8" stroke="#F47A20" stroke-width="1.5" stroke-linecap="round" stroke-linejoin="round"/>
<path d="M9 5.26758C9 5.46536 8.94135 5.6587 8.83147 5.82315C8.72159 5.9876 8.56541 6.11577 8.38268 6.19146C8.19996 6.26714 7.99889 6.28695 7.80491 6.24836C7.61093 6.20978 7.43275 6.11454 7.29289 5.97468C7.15304 5.83483 7.0578 5.65665 7.01922 5.46267C6.98063 5.26869 7.00043 5.06762 7.07612 4.88489C7.15181 4.70217 7.27998 4.54599 7.44443 4.43611C7.60888 4.32623 7.80222 4.26758 8 4.26758C8.13132 4.26758 8.26136 4.29344 8.38268 4.3437C8.50401 4.39395 8.61425 4.46761 8.70711 4.56047C8.79997 4.65333 8.87362 4.76357 8.92388 4.88489C8.97413 5.00622 9 5.13626 9 5.26758Z" fill="#F47A20"/>
</svg>
