<svg width="16" height="18" viewBox="0 0 16 18" fill="none" xmlns="http://www.w3.org/2000/svg">
<path d="M2.55556 2.55554H13.4444C13.857 2.55554 14.2527 2.71943 14.5444 3.01115C14.8361 3.30288 15 3.69854 15 4.1111V15C15 15.4125 14.8361 15.8082 14.5444 16.0999C14.2527 16.3917 13.857 16.5555 13.4444 16.5555H2.55556C2.143 16.5555 1.74733 16.3917 1.45561 16.0999C1.16389 15.8082 1 15.4125 1 15V4.1111C1 3.69854 1.16389 3.30288 1.45561 3.01115C1.74733 2.71943 2.143 2.55554 2.55556 2.55554V2.55554Z" stroke="#004DB7" stroke-width="1.5" stroke-linecap="round" stroke-linejoin="round"/>
<path d="M11.1113 1V4.11111" stroke="#004DB7" stroke-width="1.5" stroke-linecap="round" stroke-linejoin="round"/>
<path d="M4.88867 1V4.11111" stroke="#004DB7" stroke-width="1.5" stroke-linecap="round" stroke-linejoin="round"/>
<path d="M1 7.22217H15" stroke="#004DB7" stroke-width="1.5" stroke-linecap="round" stroke-linejoin="round"/>
</svg>
