<svg width="17" height="18" viewBox="0 0 17 18" fill="none" xmlns="http://www.w3.org/2000/svg">
<path d="M1.5 4.61133H15.5" stroke="#C40D42" stroke-width="1.5" stroke-linecap="round" stroke-linejoin="round"/>
<path d="M5.389 4.61111V3.05556C5.389 2.643 5.55289 2.24733 5.84461 1.95561C6.13633 1.66389 6.53199 1.5 6.94455 1.5H10.0557C10.4682 1.5 10.8639 1.66389 11.1556 1.95561C11.4473 2.24733 11.6112 2.643 11.6112 3.05556V4.61111M13.9446 4.61111V15.5C13.9446 15.9126 13.7807 16.3082 13.4889 16.5999C13.1972 16.8917 12.8016 17.0556 12.389 17.0556H4.61122C4.19866 17.0556 3.803 16.8917 3.51128 16.5999C3.21955 16.3082 3.05566 15.9126 3.05566 15.5V4.61111H13.9446Z" stroke="#C40D42" stroke-width="1.5" stroke-linecap="round" stroke-linejoin="round"/>
<path d="M6.94434 8.5V13.1667" stroke="#C40D42" stroke-width="1.5" stroke-linecap="round" stroke-linejoin="round"/>
<path d="M10.0557 8.5V13.1667" stroke="#C40D42" stroke-width="1.5" stroke-linecap="round" stroke-linejoin="round"/>
</svg>
